<svg width="117" height="44" viewBox="0 0 117 44" fill="none" xmlns="http://www.w3.org/2000/svg">
<path d="M0.548 0.885999C0.548 0.754 0.596 0.64 0.692 0.543999C0.788 0.447999 0.902 0.399999 1.034 0.399999H5.858C6.806 0.399999 7.574 0.585999 8.162 0.957999C8.75 1.318 9.17 1.756 9.422 2.272C9.674 2.788 9.8 3.292 9.8 3.784C9.8 4.456 9.638 5.002 9.314 5.422C8.99 5.83 8.672 6.13 8.36 6.322C8.864 6.658 9.272 7.09 9.584 7.618C9.908 8.134 10.07 8.71 10.07 9.346C10.07 9.97 9.914 10.564 9.602 11.128C9.302 11.68 8.852 12.13 8.252 12.478C7.652 12.826 6.938 13 6.11 13H1.034C0.902 13 0.788 12.952 0.692 12.856C0.596 12.76 0.548 12.646 0.548 12.514V0.885999ZM2.258 5.656H5.678C6.47 5.656 7.07 5.5 7.478 5.188C7.886 4.876 8.09 4.426 8.09 3.838C8.09 3.25 7.886 2.8 7.478 2.488C7.07 2.176 6.47 2.02 5.678 2.02H2.258V5.656ZM2.258 11.38H5.93C6.698 11.38 7.292 11.188 7.712 10.804C8.144 10.408 8.36 9.922 8.36 9.346C8.36 8.758 8.156 8.266 7.748 7.87C7.34 7.474 6.734 7.276 5.93 7.276H2.258V11.38ZM12.3734 4.126C12.3734 3.994 12.4214 3.88 12.5174 3.784C12.6134 3.688 12.7274 3.64 12.8594 3.64H13.5254C13.6574 3.64 13.7714 3.688 13.8674 3.784C13.9634 3.88 14.0114 3.994 14.0114 4.126V5.944H15.9554C16.7114 5.944 17.3834 6.094 17.9714 6.394C18.5714 6.682 19.0334 7.096 19.3574 7.636C19.6814 8.164 19.8434 8.776 19.8434 9.472C19.8434 10.168 19.6814 10.786 19.3574 11.326C19.0334 11.854 18.5714 12.268 17.9714 12.568C17.3834 12.856 16.7114 13 15.9554 13H12.8594C12.7274 13 12.6134 12.952 12.5174 12.856C12.4214 12.76 12.3734 12.646 12.3734 12.514V4.126ZM22.3814 12.514C22.3814 12.646 22.3334 12.76 22.2374 12.856C22.1414 12.952 22.0274 13 21.8954 13H21.2294C21.0974 13 20.9834 12.952 20.8874 12.856C20.7914 12.76 20.7434 12.646 20.7434 12.514V4.126C20.7434 3.994 20.7914 3.88 20.8874 3.784C20.9834 3.688 21.0974 3.64 21.2294 3.64H21.8954C22.0274 3.64 22.1414 3.688 22.2374 3.784C22.3334 3.88 22.3814 3.994 22.3814 4.126V12.514ZM14.0114 7.492V11.452H15.7034C16.4834 11.452 17.0954 11.296 17.5394 10.984C17.9954 10.672 18.2234 10.168 18.2234 9.472C18.2234 8.776 17.9954 8.272 17.5394 7.96C17.0954 7.648 16.4834 7.492 15.7034 7.492H14.0114ZM28.2504 11.632C29.6784 11.632 30.3924 11.206 30.3924 10.354C30.3924 9.922 30.2064 9.604 29.8344 9.4C29.4744 9.184 28.9944 9.076 28.3944 9.076H26.9904C26.8584 9.076 26.7444 9.028 26.6484 8.932C26.5524 8.836 26.5044 8.722 26.5044 8.59V8.014C26.5044 7.882 26.5524 7.768 26.6484 7.672C26.7444 7.576 26.8584 7.528 26.9904 7.528H28.4124C28.9404 7.528 29.3724 7.42 29.7084 7.204C30.0564 6.988 30.2304 6.676 30.2304 6.268C30.2304 5.848 30.0444 5.536 29.6724 5.332C29.3124 5.116 28.8384 5.008 28.2504 5.008C27.7104 5.008 27.2904 5.092 26.9904 5.26C26.6904 5.416 26.4504 5.68 26.2704 6.052C26.1144 6.376 25.9164 6.538 25.6764 6.538H25.1364C25.0044 6.538 24.8844 6.49 24.7764 6.394C24.6804 6.298 24.6384 6.184 24.6504 6.052C24.6744 5.596 24.8244 5.17 25.1004 4.774C25.3884 4.378 25.8024 4.06 26.3424 3.82C26.8824 3.58 27.5184 3.46 28.2504 3.46C29.3064 3.46 30.1704 3.7 30.8424 4.18C31.5264 4.66 31.8684 5.356 31.8684 6.268C31.8684 7.072 31.5864 7.726 31.0224 8.23C31.6944 8.722 32.0304 9.43 32.0304 10.354C32.0304 11.35 31.6824 12.07 30.9864 12.514C30.3024 12.958 29.3904 13.18 28.2504 13.18C27.0624 13.18 26.1444 12.952 25.4964 12.496C24.8484 12.028 24.5064 11.452 24.4704 10.768C24.4584 10.636 24.5004 10.522 24.5964 10.426C24.7044 10.33 24.8244 10.282 24.9564 10.282H25.4964C25.6284 10.282 25.7364 10.318 25.8204 10.39C25.9044 10.45 25.9944 10.576 26.0904 10.768C26.2704 11.116 26.5344 11.35 26.8824 11.47C27.2304 11.578 27.6864 11.632 28.2504 11.632ZM35.051 4.126C35.051 3.994 35.093 3.88 35.177 3.784C35.273 3.688 35.387 3.64 35.519 3.64H40.541C40.673 3.64 40.787 3.688 40.883 3.784C40.979 3.88 41.027 3.994 41.027 4.126V11.452H41.369C41.501 11.452 41.615 11.5 41.711 11.596C41.807 11.692 41.855 11.806 41.855 11.938V14.494C41.855 14.626 41.807 14.74 41.711 14.836C41.615 14.932 41.501 14.98 41.369 14.98H40.703C40.571 14.98 40.457 14.932 40.361 14.836C40.265 14.74 40.217 14.626 40.217 14.494V13H34.889V14.494C34.889 14.626 34.841 14.74 34.745 14.836C34.649 14.932 34.535 14.98 34.403 14.98H33.737C33.605 14.98 33.491 14.932 33.395 14.836C33.299 14.74 33.251 14.626 33.251 14.494V11.938C33.251 11.806 33.299 11.692 33.395 11.596C33.491 11.5 33.605 11.452 33.737 11.452H34.151C34.511 11.452 34.751 11.296 34.871 10.984C34.991 10.672 35.051 10.234 35.051 9.67V4.126ZM36.689 5.188V9.958C36.689 10.618 36.575 11.116 36.347 11.452H39.389V5.188H36.689ZM52.1492 7.474C52.1732 7.738 52.1852 8.026 52.1852 8.338C52.1852 8.626 52.1732 8.902 52.1492 9.166C52.0412 10.39 51.6152 11.368 50.8712 12.1C50.1392 12.82 49.1432 13.18 47.8832 13.18C46.6232 13.18 45.6212 12.82 44.8772 12.1C44.1452 11.368 43.7252 10.39 43.6172 9.166C43.6052 9.034 43.5992 8.758 43.5992 8.338C43.5992 7.894 43.6052 7.606 43.6172 7.474C43.7132 6.25 44.1332 5.278 44.8772 4.558C45.6212 3.826 46.6232 3.46 47.8832 3.46C49.1432 3.46 50.1452 3.826 50.8892 4.558C51.6332 5.278 52.0532 6.25 52.1492 7.474ZM50.5112 7.564C50.4392 6.796 50.1812 6.178 49.7372 5.71C49.3052 5.242 48.6872 5.008 47.8832 5.008C47.0792 5.008 46.4552 5.242 46.0112 5.71C45.5792 6.178 45.3272 6.796 45.2552 7.564C45.2432 7.708 45.2372 7.966 45.2372 8.338C45.2372 8.698 45.2432 8.944 45.2552 9.076C45.3272 9.844 45.5792 10.462 46.0112 10.93C46.4552 11.398 47.0792 11.632 47.8832 11.632C48.6872 11.632 49.3052 11.398 49.7372 10.93C50.1812 10.462 50.4392 9.844 50.5112 9.076C50.5352 8.812 50.5472 8.566 50.5472 8.338C50.5472 8.11 50.5352 7.852 50.5112 7.564ZM56.0759 15.934C56.0759 16.066 56.0279 16.18 55.9319 16.276C55.8359 16.372 55.7219 16.42 55.5899 16.42H54.9239C54.7919 16.42 54.6779 16.372 54.5819 16.276C54.4859 16.18 54.4379 16.066 54.4379 15.934V4.126C54.4379 3.994 54.4859 3.88 54.5819 3.784C54.6779 3.688 54.7919 3.64 54.9239 3.64H55.5899C55.7219 3.64 55.8359 3.688 55.9319 3.784C56.0279 3.88 56.0759 3.994 56.0759 4.126V4.684C56.6879 3.868 57.6179 3.46 58.8659 3.46C59.6099 3.46 60.2819 3.634 60.8819 3.982C61.4939 4.33 61.9799 4.828 62.3399 5.476C62.7119 6.124 62.9159 6.88 62.9519 7.744C62.9639 7.864 62.9699 8.056 62.9699 8.32C62.9699 8.596 62.9639 8.794 62.9519 8.914C62.9159 9.778 62.7119 10.534 62.3399 11.182C61.9799 11.818 61.4999 12.31 60.8999 12.658C60.2999 13.006 59.6219 13.18 58.8659 13.18C58.1939 13.18 57.6239 13.066 57.1559 12.838C56.6999 12.598 56.3399 12.304 56.0759 11.956V15.934ZM56.0759 8.968C56.1119 9.808 56.3639 10.462 56.8319 10.93C57.2999 11.398 57.9179 11.632 58.6859 11.632C59.4659 11.632 60.0839 11.38 60.5399 10.876C61.0079 10.372 61.2659 9.688 61.3139 8.824C61.3259 8.704 61.3319 8.536 61.3319 8.32C61.3319 8.104 61.3259 7.936 61.3139 7.816C61.2659 6.952 61.0079 6.268 60.5399 5.764C60.0839 5.26 59.4659 5.008 58.6859 5.008C57.9419 5.008 57.3299 5.242 56.8499 5.71C56.3699 6.166 56.1119 6.778 56.0759 7.546L56.0579 8.248L56.0759 8.968ZM73.2957 7.474C73.3197 7.738 73.3317 8.026 73.3317 8.338C73.3317 8.626 73.3197 8.902 73.2957 9.166C73.1877 10.39 72.7617 11.368 72.0177 12.1C71.2857 12.82 70.2897 13.18 69.0297 13.18C67.7697 13.18 66.7677 12.82 66.0237 12.1C65.2917 11.368 64.8717 10.39 64.7637 9.166C64.7517 9.034 64.7457 8.758 64.7457 8.338C64.7457 7.894 64.7517 7.606 64.7637 7.474C64.8597 6.25 65.2797 5.278 66.0237 4.558C66.7677 3.826 67.7697 3.46 69.0297 3.46C70.2897 3.46 71.2917 3.826 72.0357 4.558C72.7797 5.278 73.1997 6.25 73.2957 7.474ZM71.6577 7.564C71.5857 6.796 71.3277 6.178 70.8837 5.71C70.4517 5.242 69.8337 5.008 69.0297 5.008C68.2257 5.008 67.6017 5.242 67.1577 5.71C66.7257 6.178 66.4737 6.796 66.4017 7.564C66.3897 7.708 66.3837 7.966 66.3837 8.338C66.3837 8.698 66.3897 8.944 66.4017 9.076C66.4737 9.844 66.7257 10.462 67.1577 10.93C67.6017 11.398 68.2257 11.632 69.0297 11.632C69.8337 11.632 70.4517 11.398 70.8837 10.93C71.3277 10.462 71.5857 9.844 71.6577 9.076C71.6817 8.812 71.6937 8.566 71.6937 8.338C71.6937 8.11 71.6817 7.852 71.6577 7.564ZM75.5844 4C75.5844 3.904 75.6204 3.82 75.6924 3.748C75.7644 3.676 75.8484 3.64 75.9444 3.64H80.4084C81.4284 3.64 82.2264 3.868 82.8024 4.324C83.3904 4.78 83.6844 5.386 83.6844 6.142C83.6844 6.634 83.5884 7.03 83.3964 7.33C83.2044 7.618 82.9404 7.888 82.6044 8.14C83.0724 8.404 83.4024 8.716 83.5944 9.076C83.7864 9.424 83.8824 9.844 83.8824 10.336C83.8824 11.176 83.5884 11.83 83.0004 12.298C82.4124 12.766 81.6144 13 80.6064 13H75.9444C75.8484 13 75.7644 12.964 75.6924 12.892C75.6204 12.82 75.5844 12.736 75.5844 12.64V4ZM77.2224 7.492H80.1744C80.7984 7.492 81.2664 7.408 81.5784 7.24C81.8904 7.06 82.0464 6.754 82.0464 6.322C82.0464 5.89 81.8844 5.596 81.5604 5.44C81.2364 5.284 80.7444 5.206 80.0844 5.206H77.2224V7.492ZM77.2224 11.434H80.2644C81.5844 11.434 82.2444 11.032 82.2444 10.228C82.2444 9.796 82.0824 9.496 81.7584 9.328C81.4344 9.148 80.9544 9.058 80.3184 9.058H77.2224V11.434ZM89.8564 3.46C91.1404 3.46 92.1544 3.868 92.8984 4.684C93.6424 5.5 94.0144 6.61 94.0144 8.014V8.5C94.0144 8.632 93.9664 8.746 93.8704 8.842C93.7744 8.938 93.6604 8.986 93.5284 8.986H87.3364V9.094C87.3604 9.886 87.6004 10.51 88.0564 10.966C88.5244 11.41 89.1244 11.632 89.8564 11.632C90.4564 11.632 90.9184 11.554 91.2424 11.398C91.5784 11.242 91.8784 11.02 92.1424 10.732C92.2384 10.636 92.3224 10.57 92.3944 10.534C92.4784 10.498 92.5864 10.48 92.7184 10.48H93.2584C93.4024 10.48 93.5224 10.528 93.6184 10.624C93.7144 10.72 93.7564 10.834 93.7444 10.966C93.6964 11.29 93.5164 11.626 93.2044 11.974C92.9044 12.31 92.4664 12.598 91.8904 12.838C91.3264 13.066 90.6484 13.18 89.8564 13.18C89.0884 13.18 88.4044 13.006 87.8044 12.658C87.2044 12.298 86.7244 11.806 86.3644 11.182C86.0164 10.558 85.8064 9.856 85.7344 9.076C85.7104 8.716 85.6984 8.44 85.6984 8.248C85.6984 8.056 85.7104 7.78 85.7344 7.42C85.8064 6.676 86.0164 6.004 86.3644 5.404C86.7244 4.804 87.1984 4.33 87.7864 3.982C88.3864 3.634 89.0764 3.46 89.8564 3.46ZM92.3944 7.474V7.42C92.3944 6.688 92.1604 6.106 91.6924 5.674C91.2364 5.23 90.6244 5.008 89.8564 5.008C89.1604 5.008 88.5664 5.23 88.0744 5.674C87.5944 6.118 87.3484 6.7 87.3364 7.42V7.474H92.3944ZM103.782 3.64C103.914 3.64 104.028 3.688 104.124 3.784C104.22 3.88 104.268 3.994 104.268 4.126V12.514C104.268 12.646 104.22 12.76 104.124 12.856C104.028 12.952 103.914 13 103.782 13H103.116C102.984 13 102.87 12.952 102.774 12.856C102.678 12.76 102.63 12.646 102.63 12.514V5.188H98.8679V9.886C98.8679 10.942 98.6339 11.758 98.1659 12.334C97.7099 12.898 96.9419 13.18 95.8619 13.18H95.6459C95.5139 13.18 95.3999 13.132 95.3039 13.036C95.2079 12.94 95.1599 12.826 95.1599 12.694V12.118C95.1599 11.986 95.2079 11.872 95.3039 11.776C95.3999 11.68 95.5139 11.632 95.6459 11.632H95.8619C96.3899 11.632 96.7499 11.488 96.9419 11.2C97.1339 10.9 97.2299 10.456 97.2299 9.868V4.126C97.2299 3.994 97.2779 3.88 97.3739 3.784C97.4699 3.688 97.5839 3.64 97.7159 3.64H103.782ZM114.161 13C114.029 13 113.915 12.952 113.819 12.856C113.723 12.76 113.675 12.646 113.675 12.514V6.484L108.437 12.802C108.341 12.934 108.209 13 108.041 13H107.429C107.297 13 107.183 12.952 107.087 12.856C107.003 12.76 106.961 12.646 106.961 12.514V4.126C106.961 3.994 107.009 3.88 107.105 3.784C107.201 3.688 107.315 3.64 107.447 3.64H108.113C108.245 3.64 108.359 3.688 108.455 3.784C108.551 3.88 108.599 3.994 108.599 4.126V10.21L113.837 3.838C113.897 3.766 113.951 3.718 113.999 3.694C114.059 3.658 114.137 3.64 114.233 3.64H114.827C114.959 3.64 115.073 3.688 115.169 3.784C115.265 3.88 115.313 3.994 115.313 4.126V12.514C115.313 12.646 115.265 12.76 115.169 12.856C115.073 12.952 114.959 13 114.827 13H114.161Z" fill="#05B135"/>
<path d="M0.725 43C0.558333 43 0.416667 42.9417 0.3 42.825C0.183333 42.7083 0.125 42.5667 0.125 42.4V41.125C0.125 40.675 0.333333 40.2833 0.75 39.95L4.7 36.025C6.41667 34.675 7.60833 33.625 8.275 32.875C8.95833 32.1083 9.3 31.3583 9.3 30.625C9.3 29.8417 9.08333 29.225 8.65 28.775C8.23333 28.325 7.6 28.1 6.75 28.1C5.91667 28.1 5.25833 28.35 4.775 28.85C4.29167 29.3333 3.99167 29.9667 3.875 30.75C3.825 30.95 3.73333 31.1 3.6 31.2C3.46667 31.2833 3.31667 31.325 3.15 31.325H0.925C0.775 31.325 0.65 31.275 0.55 31.175C0.45 31.075 0.4 30.9583 0.4 30.825C0.433333 29.8417 0.7 28.925 1.2 28.075C1.7 27.2083 2.425 26.5167 3.375 26C4.325 25.4667 5.44167 25.2 6.725 25.2C8.05833 25.2 9.18333 25.4333 10.1 25.9C11.0333 26.35 11.7333 26.975 12.2 27.775C12.6667 28.575 12.9 29.4833 12.9 30.5C12.9 31.6167 12.5833 32.625 11.95 33.525C11.3333 34.425 10.3833 35.3917 9.1 36.425L5.55 40.025H12.675C12.8583 40.025 13 40.0833 13.1 40.2C13.2167 40.3 13.275 40.4417 13.275 40.625V42.4C13.275 42.5667 13.2167 42.7083 13.1 42.825C13 42.9417 12.8583 43 12.675 43H0.725ZM16.2035 43C16.0368 43 15.8952 42.9417 15.7785 42.825C15.6618 42.7083 15.6035 42.5667 15.6035 42.4V41.125C15.6035 40.675 15.8118 40.2833 16.2285 39.95L20.1785 36.025C21.8952 34.675 23.0868 33.625 23.7535 32.875C24.4368 32.1083 24.7785 31.3583 24.7785 30.625C24.7785 29.8417 24.5618 29.225 24.1285 28.775C23.7118 28.325 23.0785 28.1 22.2285 28.1C21.3952 28.1 20.7368 28.35 20.2535 28.85C19.7702 29.3333 19.4702 29.9667 19.3535 30.75C19.3035 30.95 19.2118 31.1 19.0785 31.2C18.9452 31.2833 18.7952 31.325 18.6285 31.325H16.4035C16.2535 31.325 16.1285 31.275 16.0285 31.175C15.9285 31.075 15.8785 30.9583 15.8785 30.825C15.9118 29.8417 16.1785 28.925 16.6785 28.075C17.1785 27.2083 17.9035 26.5167 18.8535 26C19.8035 25.4667 20.9202 25.2 22.2035 25.2C23.5368 25.2 24.6618 25.4333 25.5785 25.9C26.5118 26.35 27.2118 26.975 27.6785 27.775C28.1452 28.575 28.3785 29.4833 28.3785 30.5C28.3785 31.6167 28.0618 32.625 27.4285 33.525C26.8118 34.425 25.8618 35.3917 24.5785 36.425L21.0285 40.025H28.1535C28.3368 40.025 28.4785 40.0833 28.5785 40.2C28.6952 40.3 28.7535 40.4417 28.7535 40.625V42.4C28.7535 42.5667 28.6952 42.7083 28.5785 42.825C28.4785 42.9417 28.3368 43 28.1535 43H16.2035ZM39.6611 43C39.4945 43 39.3528 42.9417 39.2361 42.825C39.1195 42.7083 39.0611 42.5667 39.0611 42.4V39.2H31.1361C30.9695 39.2 30.8278 39.1417 30.7111 39.025C30.5945 38.9083 30.5361 38.7667 30.5361 38.6V36.9C30.5361 36.6333 30.6278 36.3833 30.8111 36.15L38.1861 25.925C38.2695 25.7917 38.3945 25.6917 38.5611 25.625C38.7278 25.5417 38.9111 25.5 39.1111 25.5H41.8361C42.0195 25.5 42.1611 25.5583 42.2611 25.675C42.3778 25.775 42.4361 25.9167 42.4361 26.1V36.25H44.6611C44.8445 36.25 44.9945 36.3083 45.1111 36.425C45.2278 36.525 45.2861 36.6667 45.2861 36.85V38.6C45.2861 38.7667 45.2278 38.9083 45.1111 39.025C44.9945 39.1417 44.8528 39.2 44.6861 39.2H42.4361V42.4C42.4361 42.5667 42.3778 42.7083 42.2611 42.825C42.1611 42.9417 42.0195 43 41.8361 43H39.6611ZM39.1361 36.35V29.125L34.0111 36.35H39.1361ZM53.7447 43.275C52.3614 43.275 51.1697 43.0417 50.1697 42.575C49.1864 42.1083 48.4281 41.4917 47.8947 40.725C47.3781 39.9583 47.1031 39.1333 47.0697 38.25V38.2C47.0697 38.0667 47.1197 37.9583 47.2197 37.875C47.3197 37.7917 47.4447 37.75 47.5947 37.75H49.9197C50.3031 37.75 50.5531 37.9167 50.6697 38.25C50.9031 38.9833 51.2864 39.525 51.8197 39.875C52.3697 40.225 53.0114 40.4 53.7447 40.4C54.6781 40.4 55.4531 40.1167 56.0697 39.55C56.7031 38.9833 57.0197 38.1917 57.0197 37.175C57.0197 36.275 56.7031 35.5417 56.0697 34.975C55.4531 34.4083 54.6781 34.125 53.7447 34.125C53.2447 34.125 52.8364 34.1917 52.5197 34.325C52.2031 34.4583 51.8947 34.6417 51.5947 34.875C51.3947 35.025 51.2364 35.1333 51.1197 35.2C51.0197 35.25 50.8947 35.275 50.7447 35.275H48.4447C48.2947 35.275 48.1614 35.225 48.0447 35.125C47.9447 35.0083 47.8947 34.875 47.8947 34.725L48.7697 26.175C48.7864 25.975 48.8531 25.8167 48.9697 25.7C49.1031 25.5667 49.2697 25.5 49.4697 25.5H58.8697C59.0364 25.5 59.1781 25.5583 59.2947 25.675C59.4114 25.7917 59.4697 25.9333 59.4697 26.1V27.775C59.4697 27.9417 59.4114 28.0833 59.2947 28.2C59.1781 28.3167 59.0364 28.375 58.8697 28.375H51.6447L51.2447 32.45C52.0614 31.8833 53.1531 31.6 54.5197 31.6C55.6031 31.6 56.6031 31.8333 57.5197 32.3C58.4531 32.75 59.1947 33.4083 59.7447 34.275C60.2947 35.125 60.5697 36.1167 60.5697 37.25C60.5697 38.4667 60.2864 39.5333 59.7197 40.45C59.1531 41.35 58.3531 42.05 57.3197 42.55C56.3031 43.0333 55.1114 43.275 53.7447 43.275Z" fill="black"/>
</svg>
