<svg width="133" height="44" viewBox="0 0 133 44" fill="none" xmlns="http://www.w3.org/2000/svg">
<path d="M0.98 13C0.848 13 0.746 12.958 0.674 12.874C0.602 12.79 0.566 12.688 0.566 12.568V0.831999C0.566 0.699999 0.602 0.597999 0.674 0.526C0.758 0.441999 0.86 0.399999 0.98 0.399999H1.916C2.036 0.399999 2.132 0.441999 2.204 0.526C2.288 0.597999 2.33 0.699999 2.33 0.831999V10.138L9.044 0.651999C9.08 0.603999 9.128 0.549999 9.188 0.489999C9.26 0.429999 9.362 0.399999 9.494 0.399999H10.376C10.496 0.399999 10.592 0.441999 10.664 0.526C10.748 0.597999 10.79 0.699999 10.79 0.831999V12.586C10.79 12.706 10.748 12.808 10.664 12.892C10.592 12.964 10.496 13 10.376 13H9.458C9.338 13 9.236 12.964 9.152 12.892C9.068 12.808 9.026 12.706 9.026 12.586V3.352L2.33 12.748C2.306 12.784 2.258 12.838 2.186 12.91C2.114 12.97 2.012 13 1.88 13H0.98ZM14.1054 13C13.9854 13 13.8834 12.964 13.7994 12.892C13.7274 12.808 13.6914 12.706 13.6914 12.586V4.054C13.6914 3.934 13.7274 3.838 13.7994 3.766C13.8834 3.682 13.9854 3.64 14.1054 3.64H14.9694C15.0894 3.64 15.1854 3.682 15.2574 3.766C15.3294 3.838 15.3654 3.934 15.3654 4.054V7.51H20.2794V4.054C20.2794 3.934 20.3154 3.838 20.3874 3.766C20.4714 3.682 20.5734 3.64 20.6934 3.64H21.5394C21.6594 3.64 21.7554 3.682 21.8274 3.766C21.9114 3.838 21.9534 3.934 21.9534 4.054V12.586C21.9534 12.706 21.9114 12.808 21.8274 12.892C21.7554 12.964 21.6594 13 21.5394 13H20.6934C20.5734 13 20.4714 12.964 20.3874 12.892C20.3154 12.808 20.2794 12.706 20.2794 12.586V8.95H15.3654V12.586C15.3654 12.706 15.3294 12.808 15.2574 12.892C15.1854 12.964 15.0894 13 14.9694 13H14.1054ZM29.3581 16.42C29.2381 16.42 29.1361 16.378 29.0521 16.294C28.9801 16.222 28.9441 16.126 28.9441 16.006V13C27.8881 13 27.0181 12.826 26.3341 12.478C25.6621 12.13 25.1581 11.65 24.8221 11.038C24.4981 10.426 24.3121 9.73 24.2641 8.95C24.2401 8.53 24.2401 8.11 24.2641 7.69C24.3121 6.898 24.5041 6.202 24.8401 5.602C25.1761 4.99 25.6801 4.51 26.3521 4.162C27.0361 3.814 27.9001 3.64 28.9441 3.64V0.633999C28.9441 0.513999 28.9801 0.418 29.0521 0.346C29.1361 0.261999 29.2381 0.219999 29.3581 0.219999H30.2041C30.3241 0.219999 30.4201 0.261999 30.4921 0.346C30.5761 0.418 30.6181 0.513999 30.6181 0.633999V3.64C31.6621 3.64 32.5201 3.814 33.1921 4.162C33.8761 4.51 34.3861 4.99 34.7221 5.602C35.0701 6.202 35.2621 6.898 35.2981 7.69C35.3221 8.11 35.3221 8.53 35.2981 8.95C35.2621 9.73 35.0761 10.426 34.7401 11.038C34.4041 11.65 33.9001 12.13 33.2281 12.478C32.5561 12.826 31.6861 13 30.6181 13V16.006C30.6181 16.126 30.5761 16.222 30.4921 16.294C30.4201 16.378 30.3241 16.42 30.2041 16.42H29.3581ZM28.9441 11.614V5.026C27.9721 5.026 27.2401 5.26 26.7481 5.728C26.2561 6.196 25.9861 6.892 25.9381 7.816C25.9261 7.996 25.9201 8.17 25.9201 8.338C25.9201 8.494 25.9261 8.656 25.9381 8.824C25.9981 9.748 26.2681 10.444 26.7481 10.912C27.2401 11.38 27.9721 11.614 28.9441 11.614ZM30.6181 11.614C31.6021 11.614 32.3341 11.38 32.8141 10.912C33.3061 10.432 33.5761 9.736 33.6241 8.824C33.6361 8.656 33.6421 8.494 33.6421 8.338C33.6421 8.17 33.6361 7.996 33.6241 7.816C33.5881 6.892 33.3181 6.196 32.8141 5.728C32.3221 5.26 31.5901 5.026 30.6181 5.026V11.614ZM37.9585 13C37.8505 13 37.7545 12.964 37.6705 12.892C37.5985 12.808 37.5625 12.718 37.5625 12.622V4.054C37.5625 3.934 37.5985 3.838 37.6705 3.766C37.7545 3.682 37.8565 3.64 37.9765 3.64H38.8405C38.9605 3.64 39.0565 3.682 39.1285 3.766C39.2005 3.838 39.2365 3.934 39.2365 4.054V11.686L38.7685 11.2L44.2225 3.91C44.2825 3.838 44.3485 3.778 44.4205 3.73C44.4925 3.67 44.5825 3.64 44.6905 3.64H45.5185C45.6145 3.64 45.6985 3.676 45.7705 3.748C45.8545 3.82 45.8965 3.904 45.8965 4V12.586C45.8965 12.706 45.8545 12.808 45.7705 12.892C45.6985 12.964 45.6025 13 45.4825 13H44.6365C44.5045 13 44.4025 12.964 44.3305 12.892C44.2585 12.808 44.2225 12.706 44.2225 12.586V5.404L44.7265 5.386L39.2365 12.73C39.1885 12.79 39.1285 12.85 39.0565 12.91C38.9845 12.97 38.8885 13 38.7685 13H37.9585ZM56.5052 15.268C56.3732 15.268 56.2712 15.232 56.1992 15.16C56.1272 15.088 56.0912 14.986 56.0912 14.854V13H48.9452C48.8252 13 48.7232 12.964 48.6392 12.892C48.5672 12.808 48.5312 12.706 48.5312 12.586V4.054C48.5312 3.934 48.5672 3.838 48.6392 3.766C48.7232 3.682 48.8252 3.64 48.9452 3.64H49.8092C49.9292 3.64 50.0252 3.682 50.0972 3.766C50.1692 3.838 50.2052 3.934 50.2052 4.054V11.56H54.8312V4.054C54.8312 3.934 54.8672 3.838 54.9392 3.766C55.0112 3.682 55.1072 3.64 55.2272 3.64H56.0912C56.2112 3.64 56.3072 3.682 56.3792 3.766C56.4632 3.838 56.5052 3.934 56.5052 4.054L56.4872 11.56H57.3512C57.4712 11.56 57.5672 11.602 57.6392 11.686C57.7232 11.758 57.7652 11.854 57.7652 11.974V14.854C57.7652 14.986 57.7232 15.088 57.6392 15.16C57.5672 15.232 57.4712 15.268 57.3512 15.268H56.5052ZM60.0366 13C59.9286 13 59.8326 12.964 59.7486 12.892C59.6766 12.808 59.6406 12.718 59.6406 12.622V4.054C59.6406 3.934 59.6766 3.838 59.7486 3.766C59.8326 3.682 59.9346 3.64 60.0546 3.64H60.9186C61.0386 3.64 61.1346 3.682 61.2066 3.766C61.2786 3.838 61.3146 3.934 61.3146 4.054V11.686L60.8466 11.2L66.3006 3.91C66.3606 3.838 66.4266 3.778 66.4986 3.73C66.5706 3.67 66.6606 3.64 66.7686 3.64H67.5966C67.6926 3.64 67.7766 3.676 67.8486 3.748C67.9326 3.82 67.9746 3.904 67.9746 4V12.586C67.9746 12.706 67.9326 12.808 67.8486 12.892C67.7766 12.964 67.6806 13 67.5606 13H66.7146C66.5826 13 66.4806 12.964 66.4086 12.892C66.3366 12.808 66.3006 12.706 66.3006 12.586V5.404L66.8046 5.386L61.3146 12.73C61.2666 12.79 61.2066 12.85 61.1346 12.91C61.0626 12.97 60.9666 13 60.8466 13H60.0366ZM71.0413 16.42C70.9213 16.42 70.8193 16.378 70.7353 16.294C70.6633 16.222 70.6273 16.126 70.6273 16.006V4.054C70.6273 3.934 70.6633 3.838 70.7353 3.766C70.8193 3.682 70.9213 3.64 71.0413 3.64H71.8693C71.9893 3.64 72.0853 3.682 72.1573 3.766C72.2413 3.838 72.2833 3.934 72.2833 4.054V4.846C72.5713 4.45 72.9553 4.12 73.4353 3.856C73.9153 3.592 74.5153 3.46 75.2353 3.46C75.9073 3.46 76.4773 3.574 76.9453 3.802C77.4253 4.03 77.8153 4.342 78.1153 4.738C78.4273 5.134 78.6613 5.584 78.8173 6.088C78.9733 6.592 79.0573 7.132 79.0693 7.708C79.0813 7.9 79.0873 8.104 79.0873 8.32C79.0873 8.536 79.0813 8.74 79.0693 8.932C79.0573 9.496 78.9733 10.036 78.8173 10.552C78.6613 11.056 78.4273 11.506 78.1153 11.902C77.8153 12.286 77.4253 12.598 76.9453 12.838C76.4773 13.066 75.9073 13.18 75.2353 13.18C74.5393 13.18 73.9513 13.054 73.4713 12.802C73.0033 12.538 72.6193 12.214 72.3193 11.83V16.006C72.3193 16.126 72.2833 16.222 72.2113 16.294C72.1393 16.378 72.0373 16.42 71.9053 16.42H71.0413ZM74.8573 11.722C75.4813 11.722 75.9673 11.59 76.3153 11.326C76.6753 11.05 76.9333 10.696 77.0893 10.264C77.2453 9.82 77.3353 9.346 77.3593 8.842C77.3713 8.494 77.3713 8.146 77.3593 7.798C77.3353 7.294 77.2453 6.826 77.0893 6.394C76.9333 5.95 76.6753 5.596 76.3153 5.332C75.9673 5.056 75.4813 4.918 74.8573 4.918C74.2693 4.918 73.7893 5.056 73.4173 5.332C73.0573 5.608 72.7873 5.962 72.6073 6.394C72.4393 6.814 72.3433 7.246 72.3193 7.69C72.3073 7.882 72.3013 8.11 72.3013 8.374C72.3013 8.638 72.3073 8.872 72.3193 9.076C72.3313 9.496 72.4273 9.91 72.6073 10.318C72.7993 10.726 73.0813 11.062 73.4533 11.326C73.8253 11.59 74.2933 11.722 74.8573 11.722ZM85.166 13.18C84.254 13.18 83.492 13.006 82.88 12.658C82.268 12.31 81.8 11.83 81.476 11.218C81.152 10.594 80.972 9.886 80.936 9.094C80.924 8.89 80.918 8.632 80.918 8.32C80.918 7.996 80.924 7.738 80.936 7.546C80.972 6.742 81.152 6.034 81.476 5.422C81.812 4.81 82.286 4.33 82.898 3.982C83.51 3.634 84.266 3.46 85.166 3.46C86.066 3.46 86.822 3.634 87.434 3.982C88.046 4.33 88.514 4.81 88.838 5.422C89.174 6.034 89.36 6.742 89.396 7.546C89.408 7.738 89.414 7.996 89.414 8.32C89.414 8.632 89.408 8.89 89.396 9.094C89.36 9.886 89.18 10.594 88.856 11.218C88.532 11.83 88.064 12.31 87.452 12.658C86.84 13.006 86.078 13.18 85.166 13.18ZM85.166 11.794C85.91 11.794 86.504 11.56 86.948 11.092C87.392 10.612 87.632 9.916 87.668 9.004C87.68 8.824 87.686 8.596 87.686 8.32C87.686 8.044 87.68 7.816 87.668 7.636C87.632 6.724 87.392 6.034 86.948 5.566C86.504 5.086 85.91 4.846 85.166 4.846C84.422 4.846 83.822 5.086 83.366 5.566C82.922 6.034 82.688 6.724 82.664 7.636C82.652 7.816 82.646 8.044 82.646 8.32C82.646 8.596 82.652 8.824 82.664 9.004C82.688 9.916 82.922 10.612 83.366 11.092C83.822 11.56 84.422 11.794 85.166 11.794ZM92.0819 13C91.9619 13 91.8599 12.964 91.7759 12.892C91.7039 12.808 91.6679 12.706 91.6679 12.586V4.054C91.6679 3.934 91.7039 3.838 91.7759 3.766C91.8599 3.682 91.9619 3.64 92.0819 3.64H95.8259C96.9539 3.64 97.7999 3.868 98.3639 4.324C98.9399 4.78 99.2279 5.392 99.2279 6.16C99.2279 6.7 99.1259 7.108 98.9219 7.384C98.7179 7.66 98.4299 7.894 98.0579 8.086C98.5139 8.278 98.8559 8.59 99.0839 9.022C99.3239 9.442 99.4439 9.88 99.4439 10.336C99.4439 11.2 99.1379 11.86 98.5259 12.316C97.9139 12.772 97.0619 13 95.9699 13H92.0819ZM93.3239 11.686H95.8259C96.4019 11.686 96.8639 11.578 97.2119 11.362C97.5719 11.134 97.7519 10.792 97.7519 10.336C97.7519 9.856 97.5899 9.508 97.2659 9.292C96.9419 9.064 96.4619 8.95 95.8259 8.95H93.3239V11.686ZM93.3239 7.618H95.7179C96.2939 7.618 96.7499 7.492 97.0859 7.24C97.4339 6.988 97.6079 6.634 97.6079 6.178C97.6079 5.71 97.4339 5.392 97.0859 5.224C96.7499 5.044 96.2939 4.954 95.7179 4.954H93.3239V7.618ZM104.368 13.18C103.768 13.18 103.222 13.06 102.73 12.82C102.238 12.58 101.842 12.256 101.542 11.848C101.242 11.44 101.092 10.978 101.092 10.462C101.092 9.634 101.428 8.974 102.1 8.482C102.772 7.99 103.648 7.666 104.728 7.51L107.41 7.132V6.61C107.41 6.034 107.242 5.584 106.906 5.26C106.582 4.936 106.048 4.774 105.304 4.774C104.764 4.774 104.326 4.882 103.99 5.098C103.666 5.314 103.438 5.59 103.306 5.926C103.234 6.106 103.108 6.196 102.928 6.196H102.118C101.986 6.196 101.884 6.16 101.812 6.088C101.752 6.004 101.722 5.908 101.722 5.8C101.722 5.62 101.788 5.398 101.92 5.134C102.064 4.87 102.28 4.612 102.568 4.36C102.856 4.108 103.222 3.898 103.666 3.73C104.122 3.55 104.674 3.46 105.322 3.46C106.042 3.46 106.648 3.556 107.14 3.748C107.632 3.928 108.016 4.174 108.292 4.486C108.58 4.798 108.784 5.152 108.904 5.548C109.036 5.944 109.102 6.346 109.102 6.754V12.586C109.102 12.706 109.06 12.808 108.976 12.892C108.904 12.964 108.808 13 108.688 13H107.86C107.728 13 107.626 12.964 107.554 12.892C107.482 12.808 107.446 12.706 107.446 12.586V11.812C107.29 12.028 107.08 12.244 106.816 12.46C106.552 12.664 106.222 12.838 105.826 12.982C105.43 13.114 104.944 13.18 104.368 13.18ZM104.746 11.83C105.238 11.83 105.688 11.728 106.096 11.524C106.504 11.308 106.822 10.978 107.05 10.534C107.29 10.09 107.41 9.532 107.41 8.86V8.356L105.322 8.662C104.47 8.782 103.828 8.986 103.396 9.274C102.964 9.55 102.748 9.904 102.748 10.336C102.748 10.672 102.844 10.954 103.036 11.182C103.24 11.398 103.492 11.56 103.792 11.668C104.104 11.776 104.422 11.83 104.746 11.83ZM112.103 13C111.983 13 111.881 12.964 111.797 12.892C111.725 12.808 111.689 12.706 111.689 12.586V4.054C111.689 3.934 111.725 3.838 111.797 3.766C111.881 3.682 111.983 3.64 112.103 3.64H112.967C113.087 3.64 113.183 3.682 113.255 3.766C113.327 3.838 113.363 3.934 113.363 4.054V7.51H118.277V4.054C118.277 3.934 118.313 3.838 118.385 3.766C118.469 3.682 118.571 3.64 118.691 3.64H119.537C119.657 3.64 119.753 3.682 119.825 3.766C119.909 3.838 119.951 3.934 119.951 4.054V12.586C119.951 12.706 119.909 12.808 119.825 12.892C119.753 12.964 119.657 13 119.537 13H118.691C118.571 13 118.469 12.964 118.385 12.892C118.313 12.808 118.277 12.706 118.277 12.586V8.95H113.363V12.586C113.363 12.706 113.327 12.808 113.255 12.892C113.183 12.964 113.087 13 112.967 13H112.103ZM123.072 13C122.952 13 122.85 12.964 122.766 12.892C122.694 12.808 122.658 12.706 122.658 12.586V4.054C122.658 3.934 122.694 3.838 122.766 3.766C122.85 3.682 122.952 3.64 123.072 3.64H123.936C124.056 3.64 124.152 3.682 124.224 3.766C124.308 3.838 124.35 3.934 124.35 4.054V6.7H126.222C127.446 6.7 128.34 6.988 128.904 7.564C129.468 8.14 129.75 8.92 129.75 9.904C129.75 10.96 129.438 11.74 128.814 12.244C128.19 12.748 127.254 13 126.006 13H123.072ZM124.332 11.65H126.06C126.792 11.65 127.326 11.524 127.662 11.272C127.998 11.008 128.166 10.552 128.166 9.904C128.166 9.28 128.004 8.818 127.68 8.518C127.356 8.206 126.816 8.05 126.06 8.05H124.332V11.65ZM131.442 13C131.322 13 131.22 12.964 131.136 12.892C131.064 12.808 131.028 12.706 131.028 12.586V4.054C131.028 3.934 131.064 3.838 131.136 3.766C131.22 3.682 131.322 3.64 131.442 3.64H132.306C132.426 3.64 132.522 3.682 132.594 3.766C132.678 3.838 132.72 3.934 132.72 4.054V12.586C132.72 12.706 132.678 12.808 132.594 12.892C132.522 12.964 132.426 13 132.306 13H131.442Z" fill="#DB0000"/>
<path d="M0.725 43C0.558333 43 0.416667 42.9417 0.3 42.825C0.183333 42.7083 0.125 42.5667 0.125 42.4V41.125C0.125 40.975 0.158333 40.8 0.225 40.6C0.308333 40.3833 0.483333 40.1667 0.75 39.95L4.7 36.025C5.8 35.1583 6.68333 34.425 7.35 33.825C8.03333 33.2083 8.525 32.65 8.825 32.15C9.14167 31.6333 9.3 31.125 9.3 30.625C9.3 29.875 9.09167 29.2667 8.675 28.8C8.275 28.3333 7.63333 28.1 6.75 28.1C6.16667 28.1 5.675 28.225 5.275 28.475C4.875 28.7083 4.55833 29.025 4.325 29.425C4.10833 29.825 3.95833 30.2667 3.875 30.75C3.84167 30.9667 3.75 31.1167 3.6 31.2C3.45 31.2833 3.3 31.325 3.15 31.325H0.925C0.775 31.325 0.65 31.275 0.55 31.175C0.45 31.075 0.4 30.9583 0.4 30.825C0.416667 30.1083 0.566667 29.4167 0.85 28.75C1.13333 28.0667 1.54167 27.4667 2.075 26.95C2.625 26.4167 3.29167 25.9917 4.075 25.675C4.85833 25.3583 5.74167 25.2 6.725 25.2C8.10833 25.2 9.25 25.4333 10.15 25.9C11.0667 26.3667 11.75 27 12.2 27.8C12.6667 28.6 12.9 29.5 12.9 30.5C12.9 31.2833 12.75 32.0083 12.45 32.675C12.15 33.325 11.7167 33.9583 11.15 34.575C10.5833 35.175 9.9 35.7917 9.1 36.425L5.55 40.025H12.675C12.8583 40.025 13 40.0833 13.1 40.2C13.2167 40.3 13.275 40.4417 13.275 40.625V42.4C13.275 42.5667 13.2167 42.7083 13.1 42.825C13 42.9417 12.8583 43 12.675 43H0.725ZM18.1035 43C17.9535 43 17.8285 42.95 17.7285 42.85C17.6285 42.7333 17.5785 42.6 17.5785 42.45C17.5785 42.3833 17.5952 42.3083 17.6285 42.225L23.6535 28.475H15.8035C15.6202 28.475 15.4702 28.4167 15.3535 28.3C15.2535 28.1833 15.2035 28.0417 15.2035 27.875V26.125C15.2035 25.9417 15.2535 25.7917 15.3535 25.675C15.4702 25.5583 15.6202 25.5 15.8035 25.5H26.7785C26.9618 25.5 27.1035 25.5583 27.2035 25.675C27.3202 25.7917 27.3785 25.9417 27.3785 26.125V27.675C27.3785 27.9083 27.3535 28.1083 27.3035 28.275C27.2702 28.425 27.2202 28.5833 27.1535 28.75L21.1785 42.4C21.1285 42.5167 21.0368 42.65 20.9035 42.8C20.7868 42.9333 20.6118 43 20.3785 43H18.1035ZM35.7027 43.275C34.2694 43.275 33.0611 43.0417 32.0777 42.575C31.0944 42.0917 30.3444 41.4667 29.8277 40.7C29.3277 39.9333 29.0611 39.1167 29.0277 38.25C29.0111 38.1 29.0527 37.9833 29.1527 37.9C29.2694 37.8 29.4027 37.75 29.5527 37.75H31.8777C32.0611 37.75 32.2111 37.7917 32.3277 37.875C32.4611 37.9417 32.5611 38.0667 32.6277 38.25C32.7944 38.75 33.0277 39.1583 33.3277 39.475C33.6444 39.7917 34.0027 40.025 34.4027 40.175C34.8194 40.325 35.2527 40.4 35.7027 40.4C36.3027 40.4 36.8444 40.2833 37.3277 40.05C37.8277 39.8 38.2277 39.4333 38.5277 38.95C38.8277 38.4667 38.9777 37.875 38.9777 37.175C38.9777 36.5583 38.8361 36.025 38.5527 35.575C38.2694 35.125 37.8777 34.775 37.3777 34.525C36.8944 34.2583 36.3361 34.125 35.7027 34.125C35.2361 34.125 34.8527 34.1833 34.5527 34.3C34.2527 34.4167 33.9944 34.55 33.7777 34.7C33.5777 34.85 33.3944 34.9833 33.2277 35.1C33.0777 35.2167 32.9027 35.275 32.7027 35.275H30.4027C30.2527 35.275 30.1194 35.225 30.0027 35.125C29.9027 35.0083 29.8527 34.875 29.8527 34.725L30.7277 26.175C30.7444 25.9583 30.8194 25.7917 30.9527 25.675C31.0861 25.5583 31.2444 25.5 31.4277 25.5H40.8277C40.9944 25.5 41.1361 25.5583 41.2527 25.675C41.3694 25.7917 41.4277 25.9333 41.4277 26.1V27.775C41.4277 27.9417 41.3694 28.0833 41.2527 28.2C41.1361 28.3167 40.9944 28.375 40.8277 28.375H33.6027L33.2027 32.45C33.5027 32.25 33.9027 32.0583 34.4027 31.875C34.9027 31.6917 35.5944 31.6 36.4777 31.6C37.2777 31.6 38.0361 31.7333 38.7527 32C39.4861 32.25 40.1361 32.625 40.7027 33.125C41.2694 33.6083 41.7111 34.2 42.0277 34.9C42.3611 35.5833 42.5277 36.3667 42.5277 37.25C42.5277 38.4667 42.2444 39.525 41.6777 40.425C41.1111 41.325 40.3194 42.025 39.3027 42.525C38.2861 43.025 37.0861 43.275 35.7027 43.275ZM51.3307 43.25C50.164 43.25 49.1557 43.1083 48.3057 42.825C47.4557 42.5417 46.7473 42.175 46.1807 41.725C45.6307 41.2583 45.214 40.7583 44.9307 40.225C44.6473 39.675 44.4973 39.1333 44.4807 38.6C44.4807 38.45 44.5307 38.3333 44.6307 38.25C44.7473 38.15 44.8807 38.1 45.0307 38.1H47.2807C47.4473 38.1 47.589 38.1333 47.7057 38.2C47.8223 38.2667 47.9223 38.4 48.0057 38.6C48.1557 39.05 48.3973 39.4083 48.7307 39.675C49.0807 39.9417 49.4807 40.1333 49.9307 40.25C50.3807 40.35 50.8557 40.4 51.3557 40.4C52.3557 40.4 53.1473 40.1667 53.7307 39.7C54.3307 39.2167 54.6307 38.5333 54.6307 37.65C54.6307 36.7667 54.3557 36.1333 53.8057 35.75C53.2557 35.35 52.489 35.15 51.5057 35.15H48.9307C48.7473 35.15 48.5973 35.1 48.4807 35C48.364 34.8833 48.3057 34.7333 48.3057 34.55V33.5C48.3057 33.3333 48.339 33.1917 48.4057 33.075C48.489 32.9417 48.5723 32.8333 48.6557 32.75L53.1307 28.375H45.9807C45.7973 28.375 45.6473 28.3167 45.5307 28.2C45.4307 28.0833 45.3807 27.9417 45.3807 27.775V26.125C45.3807 25.9417 45.4307 25.7917 45.5307 25.675C45.6473 25.5583 45.7973 25.5 45.9807 25.5H56.7057C56.889 25.5 57.039 25.5583 57.1557 25.675C57.2723 25.7917 57.3307 25.9417 57.3307 26.125V27.625C57.3307 27.775 57.2973 27.9083 57.2307 28.025C57.164 28.1417 57.089 28.2417 57.0057 28.325L52.6807 32.775L52.9807 32.8C53.9973 32.8833 54.8973 33.1167 55.6807 33.5C56.4807 33.8667 57.0973 34.4083 57.5307 35.125C57.9807 35.8417 58.2057 36.7417 58.2057 37.825C58.2057 38.9583 57.9057 39.9333 57.3057 40.75C56.7223 41.55 55.914 42.1667 54.8807 42.6C53.8473 43.0333 52.664 43.25 51.3307 43.25Z" fill="black"/>
</svg>
